<svg height="512pt" viewBox="-109 0 512 512.00071" width="512pt" xmlns="http://www.w3.org/2000/svg"><path d="m16.3125 48.941406v430.375c.003906 9.011719 7.3125 16.3125 16.324219 16.304688 2.527343 0 5.019531-.589844 7.28125-1.71875l99.609375-49.789063c4.589844-2.292969 9.992187-2.292969 14.585937 0l99.609375 49.789063c8.058594 4.027344 17.855469.757812 21.882813-7.300782 1.132812-2.261718 1.71875-4.753906 1.722656-7.28125v-430.378906c0-18.019531-14.609375-32.628906-32.628906-32.628906h-195.757813c-18.019531 0-32.628906 14.609375-32.628906 32.628906zm0 0" fill="#bddbff"/><path d="m261.011719 511.976562c-5.097657 0-10.125-1.191406-14.679688-3.472656l-99.511719-49.804687-99.511718 49.804687c-16.089844 8.109375-35.710938 1.636719-43.816406-14.453125-2.304688-4.570312-3.5000005-9.617187-3.492188-14.730469v-430.378906c0-27.03125 21.910156-48.941406 48.941406-48.941406h195.757813c27.027343 0 48.941406 21.910156 48.941406 48.941406v430.375c0 18.019532-14.609375 32.628906-32.628906 32.628906zm-114.191407-85.871093c5.058594-.011719 10.050782 1.15625 14.582032 3.40625l99.609375 49.839843v-430.410156c0-9.011718-7.300781-16.316406-16.3125-16.316406h-195.757813c-9.011718 0-16.316406 7.304688-16.316406 16.316406v430.375l99.59375-49.804687c4.539062-2.25 9.535156-3.417969 14.601562-3.40625zm0 0" fill="#3d9ae2"/></svg>