<?xml version="1.0" encoding="iso-8859-1"?>
<!-- Generator: Adobe Illustrator 19.0.0, SVG Export Plug-In . SVG Version: 6.00 Build 0)  -->
<svg version="1.1" id="Layer_1" xmlns="http://www.w3.org/2000/svg" xmlns:xlink="http://www.w3.org/1999/xlink" x="0px" y="0px"
	 viewBox="0 0 512.005 512.005" style="enable-background:new 0 0 512.005 512.005;" xml:space="preserve">
<path style="fill:#D25627;" d="M446.549,72.589v428.64c0.009,5.009-4.047,9.083-9.056,9.092c-2.704,0.009-5.281-1.198-7.005-3.285
	l-68.053-81.663c-3.285-3.784-9.019-4.183-12.803-0.898c-0.318,0.281-0.626,0.581-0.898,0.898l-76.945,83.659
	c-3.366,3.711-9.11,3.983-12.821,0.608c-1.887-1.715-2.967-4.147-2.967-6.687V190.547H74.529c-5.009,0-9.074-4.065-9.074-9.074
	V72.589C65.455,32.502,97.957,0,138.045,0H373.96C414.047,0,446.549,32.502,446.549,72.589z"/>
<path style="fill:#C03A2B;" d="M256.002,72.589v117.958H74.529c-5.009,0-9.074-4.065-9.074-9.074V72.589
	C65.455,32.502,97.957,0,138.045,0h45.368C223.5,0,256.002,32.502,256.002,72.589z"/>
<g>
</g>
<g>
</g>
<g>
</g>
<g>
</g>
<g>
</g>
<g>
</g>
<g>
</g>
<g>
</g>
<g>
</g>
<g>
</g>
<g>
</g>
<g>
</g>
<g>
</g>
<g>
</g>
<g>
</g>
</svg>
