<?xml version="1.0" encoding="iso-8859-1"?>
<!-- Generator: Adobe Illustrator 19.0.0, SVG Export Plug-In . SVG Version: 6.00 Build 0)  -->
<svg version="1.1" id="Layer_1" xmlns="http://www.w3.org/2000/svg" xmlns:xlink="http://www.w3.org/1999/xlink" x="0px" y="0px"
	 viewBox="0 0 512 512" style="enable-background:new 0 0 512 512;" xml:space="preserve">
<path style="fill:#B71C1C;" d="M435.2,76.8v426.667l-25.6-30.72l-59.733-71.68l-13.397,14.507L256,503.467V187.733H76.8V76.8
	c0-37.7,30.566-68.267,68.267-68.267h221.867C404.634,8.533,435.2,39.1,435.2,76.8z"/>
<path style="fill:#D50000;" d="M409.6,76.8v395.947l-59.733-71.68l-13.397,14.507l-12.203-14.507L256,475.563V187.733H76.8V76.8
	c0-37.7,30.566-68.267,68.267-68.267h196.267C379.034,8.533,409.6,39.1,409.6,76.8z"/>
<path style="fill:#B71C1C;" d="M256,76.8v110.933H76.8V76.8c0-37.7,30.566-68.267,68.267-68.267h42.667
	C225.434,8.533,256,39.1,256,76.8z"/>
<path d="M435.2,512c-2.534,0-4.949-1.118-6.571-3.072l-78.763-94.976l-87.552,95.232c-3.166,3.49-8.567,3.746-12.058,0.572
	c-1.766-1.613-2.782-3.891-2.79-6.289v-307.2H76.8c-4.71,0-8.533-3.823-8.533-8.533V76.8c0-42.419,34.381-76.8,76.8-76.8h221.867
	c42.419,0,76.8,34.381,76.8,76.8v426.667C443.733,508.177,439.91,512,435.2,512z M85.333,179.2H256c4.71,0,8.533,3.823,8.533,8.533
	v293.717l79.019-86.187c1.63-1.758,3.917-2.748,6.315-2.731c2.475,0.043,4.813,1.169,6.4,3.072l70.4,84.224V76.8
	c0-32.99-26.743-59.733-59.733-59.733H145.067c-32.99,0-59.733,26.743-59.733,59.733V179.2z"/>
<path d="M256,196.267H76.8c-4.71,0-8.533-3.823-8.533-8.533V76.8c0-42.419,34.381-76.8,76.8-76.8h42.667
	c42.419,0,76.8,34.381,76.8,76.8v110.933C264.533,192.444,260.71,196.267,256,196.267z M85.333,179.2h162.133V76.8
	c0-32.99-26.743-59.733-59.733-59.733h-42.667c-32.99,0-59.733,26.743-59.733,59.733V179.2z"/>
<g>
</g>
<g>
</g>
<g>
</g>
<g>
</g>
<g>
</g>
<g>
</g>
<g>
</g>
<g>
</g>
<g>
</g>
<g>
</g>
<g>
</g>
<g>
</g>
<g>
</g>
<g>
</g>
<g>
</g>
</svg>
